<?xml version="1.0" encoding="UTF-8"?><!-- Generator: Adobe Illustrator 22.1.0, SVG Export Plug-In . SVG Version: 6.00 Build 0)  --><svg xmlns="http://www.w3.org/2000/svg" enable-background="new 0 0 199.5 199.9" id="图层_1" version="1.1" viewBox="0 0 199.5 199.9" x="0px" xml:space="preserve" y="0px">
<g id="change1_1">
	<path d="m183 0h-166.4c-9.2 0-16.6 7.5-16.6 16.6v166.7c0 9.2 7.5 16.6 16.6 16.6h166.3c9.2 0 16.6-7.5 16.6-16.6v-166.7c0.1-9.1-7.3-16.6-16.5-16.6zm-123.9 164.9h-29.5v-88.6h29.5v88.6zm-14.8-99.3c-9.3 0-16.8-7.5-16.8-16.8s7.5-16.8 16.8-16.8 16.8 7.5 16.8 16.8-7.5 16.8-16.8 16.8zm125.8 99.3h-29.6l-0.7-52.6s0.7-14-14.6-13.9-17.4 13.9-17.4 13.9v52.6h-29.8v-88.6h28.6v12.2s1.2-4 7.8-8.7 17.5-5.7 22.2-5.5 11.1-0.6 21.8 6.8c11.5 7.9 11.8 28.6 11.8 28.6l-0.1 55.2z" fill="#0277B5"/>
</g>
</svg>